HIERARCHY
ROOT Hips
{
	OFFSET -0.001795 -0.223333 0.028219
	CHANNELS 6 Xposition Yposition Zposition Zrotation Yrotation Xrotation 
	JOINT LeftUpLeg
	{
		OFFSET 0.069520 -0.091406 -0.006815
		CHANNELS 3 Zrotation Yrotation Xrotation
		JOINT LeftLeg
		{
			OFFSET 0.034277 -0.375199 -0.004496
			CHANNELS 3 Zrotation Yrotation Xrotation
			JOINT LeftFoot
			{
				OFFSET -0.013596 -0.397961 -0.043693
				CHANNELS 3 Zrotation Yrotation Xrotation
				JOINT LeftToe
				{
					OFFSET 0.026358 -0.055791 0.119288
					CHANNELS 3 Zrotation Yrotation Xrotation
					End Site
					{
						OFFSET 0.000000 0.000000 0.000000
					}
				}
			}
		}
	}
	JOINT RightUpLeg
	{
		OFFSET -0.067670 -0.090522 -0.004320
		CHANNELS 3 Zrotation Yrotation Xrotation
		JOINT RightLeg
		{
			OFFSET -0.038290 -0.382569 -0.008850
			CHANNELS 3 Zrotation Yrotation Xrotation
			JOINT RightFoot
			{
				OFFSET 0.015774 -0.398415 -0.042312
				CHANNELS 3 Zrotation Yrotation Xrotation
				JOINT RightToe
				{
					OFFSET -0.025372 -0.048144 0.123348
					CHANNELS 3 Zrotation Yrotation Xrotation
					End Site
					{
						OFFSET 0.000000 0.000000 0.000000
					}
				}
			}
		}
	}
	JOINT Spine
	{
		OFFSET -0.002533 0.108963 -0.026696
		CHANNELS 3 Zrotation Yrotation Xrotation
		JOINT Spine1
		{
			OFFSET 0.005487 0.135180 0.001092
			CHANNELS 3 Zrotation Yrotation Xrotation
			JOINT Spine2
			{
				OFFSET 0.001457 0.052922 0.025425
				CHANNELS 3 Zrotation Yrotation Xrotation
				JOINT Neck
				{
					OFFSET -0.002778 0.213870 -0.042857
					CHANNELS 3 Zrotation Yrotation Xrotation
					JOINT Head
					{
						OFFSET 0.005152 0.064970 0.051349
						CHANNELS 3 Zrotation Yrotation Xrotation
						End Site
						{
							OFFSET 0.000000 0.000000 0.000000
						}
					}
				}
				JOINT LeftShoulder
				{
					OFFSET 0.078845 0.121749 -0.034090
					CHANNELS 3 Zrotation Yrotation Xrotation
					JOINT LeftArm
					{
						OFFSET 0.090977 0.030469 -0.008868
						CHANNELS 3 Zrotation Yrotation Xrotation
						JOINT LeftForeArm
						{
							OFFSET 0.259612 -0.012772 -0.027456
							CHANNELS 3 Zrotation Yrotation Xrotation
							JOINT LeftHand
							{
								OFFSET 0.249234 0.008986 -0.001171
								CHANNELS 3 Zrotation Yrotation Xrotation
								End Site
								{
									OFFSET 0.000000 0.000000 0.000000
								}
							}
						}
					}
				}
				JOINT RightShoulder
				{
					OFFSET -0.081759 0.118833 -0.038615
					CHANNELS 3 Zrotation Yrotation Xrotation
					JOINT RightArm
					{
						OFFSET -0.096012 0.032551 -0.009143
						CHANNELS 3 Zrotation Yrotation Xrotation
						JOINT RightForeArm
						{
							OFFSET -0.253742 -0.013329 -0.021401
							CHANNELS 3 Zrotation Yrotation Xrotation
							JOINT RightHand
							{
								OFFSET -0.255298 0.007772 -0.005559
								CHANNELS 3 Zrotation Yrotation Xrotation
								End Site
								{
									OFFSET 0.000000 0.000000 0.000000
								}
							}
						}
					}
				}
			}
		}
	}
}
MOTION
Frames: 8
Frame Time: 0.050000
-0.200336 0.865654 0.070929 4.311295 41.681856 22.224462 19.385204 -9.199640 -58.750398 -10.866442 -0.923626 35.966812 -3.547900 -1.223142 8.359493 0.000000 0.000000 0.000000 -5.804823 -8.144536 -49.003510 4.259417 -10.012784 50.512981 -13.644269 -32.243721 -3.920326 0.000000 0.000000 0.000000 -2.302753 -4.478620 30.526319 -5.667267 2.394347 -5.980853 -2.404085 17.799601 13.378969 8.299144 2.445730 -25.822298 0.000000 0.000000 0.000000 -5.653403 12.114554 -8.887234 -76.026096 -19.996868 -4.625811 163.613987 -47.373898 -143.373146 0.000000 0.000000 0.000000 -14.362143 -14.491768 -8.173778 88.959045 1.177740 16.565325 -128.634088 39.074249 -47.329172 0.000000 0.000000 0.000000 
-0.204671 0.863042 0.070967 3.885998 42.278969 22.114192 20.520181 -9.108963 -59.501904 -11.410848 -0.737874 36.304151 -3.400006 -1.054195 8.218602 0.000000 0.000000 0.000000 -4.974546 -8.274990 -50.329785 3.449313 -9.865885 52.159581 -13.188473 -31.211611 -4.296800 0.000000 0.000000 0.000000 -2.306828 -4.617033 30.797944 -5.897792 2.466512 -6.011099 -2.140059 17.322441 13.445989 8.210480 2.239718 -24.702313 0.000000 0.000000 0.000000 -5.455306 12.798296 -8.983957 -76.352137 -19.885000 -4.796894 163.360153 -47.046337 -142.226184 0.000000 0.000000 0.000000 -14.548444 -15.364475 -8.450949 91.359778 0.360888 17.046167 -130.180535 39.545832 -50.975284 0.000000 0.000000 0.000000 
-0.207170 0.861256 0.071306 3.518397 42.748363 21.958077 21.468312 -9.013676 -60.090702 -12.177100 -0.479309 36.717958 -3.295620 -1.097721 7.946697 0.000000 0.000000 0.000000 -4.588419 -8.473729 -51.194467 2.768634 -9.748891 53.530080 -12.444796 -29.581624 -4.770801 0.000000 0.000000 0.000000 -2.710378 -4.620537 31.096540 -5.809446 2.441460 -6.040053 -1.875803 16.536064 13.308204 7.750347 2.164949 -23.508476 0.000000 0.000000 0.000000 -4.699545 14.015253 -8.841436 -77.417135 -21.016186 -4.353090 162.586671 -47.450117 -140.679007 0.000000 0.000000 0.000000 -14.394191 -15.488700 -8.415058 92.923847 0.243028 17.251736 -131.832270 39.452143 -53.405231 0.000000 0.000000 0.000000 
-0.208301 0.859824 0.071700 3.118823 42.904710 21.499430 21.702814 -8.970827 -60.161824 -12.516456 -0.423391 37.381864 -3.369941 -1.873619 7.265578 0.000000 0.000000 0.000000 -4.045811 -8.357223 -51.679015 2.175129 -9.645313 54.784798 -12.179561 -29.022866 -4.974288 0.000000 0.000000 0.000000 -2.976534 -4.603122 31.287702 -6.211201 2.567229 -5.942950 -1.259029 16.315877 13.206144 7.249248 2.119655 -22.178953 0.000000 0.000000 0.000000 -4.441050 14.426503 -8.773427 -78.066931 -22.038845 -3.757839 162.040090 -47.441957 -139.365279 0.000000 0.000000 0.000000 -14.084865 -15.624924 -8.417391 93.698389 -0.254481 16.825269 -133.552517 39.289432 -55.297043 0.000000 0.000000 0.000000 
-0.208655 0.857934 0.072289 2.862598 43.157003 20.856855 22.146567 -8.872149 -60.154236 -13.243423 -0.249936 38.226510 -3.165760 -1.981055 6.612109 0.000000 0.000000 0.000000 -4.017321 -8.346089 -51.462955 1.832981 -9.824727 55.866301 -11.623701 -28.057725 -5.901687 0.000000 0.000000 0.000000 -3.520612 -4.552073 31.668083 -6.221121 2.574254 -5.846899 -1.054765 15.963531 13.383133 6.579329 2.266516 -21.372607 0.000000 0.000000 0.000000 -3.653969 15.075510 -8.439597 -79.051306 -24.340542 -2.431479 160.996187 -47.367599 -136.873503 0.000000 0.000000 0.000000 -14.707997 -14.953470 -8.244266 95.143025 0.283102 17.780713 -133.784971 38.258299 -54.540330 0.000000 0.000000 0.000000 
-0.209003 0.856146 0.073240 2.893948 43.856385 20.615208 21.860310 -9.222686 -60.343515 -13.072486 -0.501615 39.249103 -3.276976 -2.774487 5.999173 0.000000 0.000000 0.000000 -4.210861 -8.728480 -51.563783 1.887538 -10.196210 56.469702 -11.764055 -28.439747 -6.127094 0.000000 0.000000 0.000000 -3.840384 -4.666559 32.200282 -6.549044 2.673237 -5.757612 -0.885716 15.501146 13.458138 6.477960 2.030055 -20.146252 0.000000 0.000000 0.000000 -2.436765 14.862220 -7.546693 -80.875280 -26.893573 -1.126611 160.990993 -46.458959 -135.354754 0.000000 0.000000 0.000000 -15.065722 -14.278417 -8.047548 95.931304 0.663214 18.222581 -134.443582 36.936078 -53.415722 0.000000 0.000000 0.000000 
-0.209801 0.853411 0.074651 2.332536 44.113388 19.944085 22.403591 -9.149391 -60.702781 -13.645421 -0.381362 40.635317 -3.043530 -2.820984 5.364614 0.000000 0.000000 0.000000 -3.972980 -8.598916 -51.468792 2.253740 -10.756241 57.045911 -11.777358 -28.926254 -7.105364 0.000000 0.000000 0.000000 -4.870344 -4.579926 32.995270 -6.745529 2.712385 -5.204256 -0.716779 15.655489 13.039643 5.679672 2.064057 -18.519011 0.000000 0.000000 0.000000 -1.261979 14.917128 -6.762137 -81.676927 -29.722703 0.679782 160.411236 -45.374093 -132.543458 0.000000 0.000000 0.000000 -15.606576 -13.008256 -7.671191 96.279258 1.752963 19.169055 -134.553006 34.937510 -50.402564 0.000000 0.000000 0.000000 
-0.211531 0.851655 0.076682 1.726362 44.340966 19.418432 22.857624 -9.107731 -61.131396 -13.705775 -0.426459 41.889191 -3.222171 -3.172540 5.523963 0.000000 0.000000 0.000000 -3.923878 -8.422842 -50.990304 3.053155 -11.373793 56.538134 -11.955257 -29.742477 -7.760486 0.000000 0.000000 0.000000 -5.637465 -4.490754 33.480495 -7.098295 2.779374 -4.278065 -0.980471 15.457251 12.491805 5.517972 1.711512 -16.949060 0.000000 0.000000 0.000000 0.031543 14.623171 -5.776090 -82.254906 -32.051784 2.205380 159.287466 -44.187114 -128.761829 0.000000 0.000000 0.000000 -16.006514 -11.579782 -7.191389 96.364389 3.014862 19.922998 -134.263449 33.213754 -47.354298 0.000000 0.000000 0.000000 
